# xmcd
#
# Track frame offsets:
#	225
#	16061
#	27910
#	45154
#	62789
#	77216
#	90159
#	97323
#	112700
#	127138
#	141142
#	154957
#	163321
#	176588
#
# Disc length: 2544 seconds
#
# Revision: 1
# Processed by: cddbd v1.5.2PL0 Copyright (c) Steve Scherf et al.
# Submitted via: audiograbber 1.83.01
#
DISCID=b009ed0e
DTITLE=Various Artist - Ihre Tanzplatte für Sie zuhause
DYEAR=1900
DGENRE=
TTITLE0=Ev'rybody Cha Cha Cha
TTITLE1=El duende
TTITLE2=Dance with me
TTITLE3=Solo para siempre - Conto manso
TTITLE4=Hudson Boogie
TTITLE5=Jill's Jive
TTITLE6=Espana olé
TTITLE7=Twillight time - Body and Soul
TTITLE8=Alll alone - What íi I do
TTITLE9=The Song of Love
TTITLE10=Oh, you beautiful doll/Honey/Do you ever think of me
TTITLE11=Sunny
TTITLE12=La Buronia
TTITLE13=Sunshine Waltz
EXTD=
EXTT0=
EXTT1=
EXTT2=
EXTT3=
EXTT4=
EXTT5=
EXTT6=
EXTT7=
EXTT8=
EXTT9=
EXTT10=
EXTT11=
EXTT12=
EXTT13=
PLAYORDER=
